<?xml version="1.0" encoding="UTF-8" standalone="no"?>
<!DOCTYPE svg PUBLIC "-//W3C//DTD SVG 1.1//EN"
 "http://www.w3.org/Graphics/SVG/1.1/DTD/svg11.dtd">
<!-- Generated by graphviz version 2.43.0 (0)
 -->
<!-- Title: %3 Pages: 1 -->
<svg width="337pt" height="273pt"
 viewBox="0.00 0.00 337.12 272.74" xmlns="http://www.w3.org/2000/svg" xmlns:xlink="http://www.w3.org/1999/xlink">
<g id="graph0" class="graph" transform="scale(1 1) rotate(0) translate(4 268.74)">
<title>%3</title>
<polygon fill="white" stroke="transparent" points="-4,4 -4,-268.74 333.12,-268.74 333.12,4 -4,4"/>
<!-- {a, b} -->
<g id="node1" class="node">
<title>{a, b}</title>
<ellipse fill="none" stroke="black" cx="230.59" cy="-18" rx="32.49" ry="18"/>
<text text-anchor="middle" x="230.59" y="-14.3" font-family="Times,serif" font-size="14.00">{a, b}</text>
</g>
<!-- {a, c} -->
<g id="node2" class="node">
<title>{a, c}</title>
<ellipse fill="none" stroke="black" cx="296.62" cy="-132.37" rx="32.49" ry="18"/>
<text text-anchor="middle" x="296.62" y="-128.67" font-family="Times,serif" font-size="14.00">{a, c}</text>
</g>
<!-- {a, b}&#45;&gt;{a, c} -->
<g id="edge1" class="edge">
<title>{a, b}&#45;&gt;{a, c}</title>
<path fill="none" stroke="lightcoral" stroke-width="2" d="M240.62,-35.37C253.1,-56.99 274.29,-93.69 286.71,-115.21"/>
</g>
<!-- {a, d} -->
<g id="node3" class="node">
<title>{a, d}</title>
<ellipse fill="none" stroke="black" cx="230.59" cy="-246.74" rx="32.49" ry="18"/>
<text text-anchor="middle" x="230.59" y="-243.04" font-family="Times,serif" font-size="14.00">{a, d}</text>
</g>
<!-- {a, b}&#45;&gt;{a, d} -->
<g id="edge2" class="edge">
<title>{a, b}&#45;&gt;{a, d}</title>
<path fill="none" stroke="lightcoral" stroke-width="2" d="M230.59,-36.33C230.59,-79.27 230.59,-185.93 230.59,-228.64"/>
</g>
<!-- {b, c} -->
<g id="node4" class="node">
<title>{b, c}</title>
<ellipse fill="none" stroke="black" cx="32.5" cy="-132.37" rx="32.49" ry="18"/>
<text text-anchor="middle" x="32.5" y="-128.67" font-family="Times,serif" font-size="14.00">{b, c}</text>
</g>
<!-- {a, b}&#45;&gt;{b, c} -->
<g id="edge3" class="edge">
<title>{a, b}&#45;&gt;{b, c}</title>
<path fill="none" stroke="#548b54" stroke-width="2" d="M207.87,-31.12C169.76,-53.12 93.4,-97.21 55.26,-119.23"/>
</g>
<!-- {b, d} -->
<g id="node5" class="node">
<title>{b, d}</title>
<ellipse fill="none" stroke="black" cx="98.53" cy="-18" rx="33.29" ry="18"/>
<text text-anchor="middle" x="98.53" y="-14.3" font-family="Times,serif" font-size="14.00">{b, d}</text>
</g>
<!-- {a, b}&#45;&gt;{b, d} -->
<g id="edge4" class="edge">
<title>{a, b}&#45;&gt;{b, d}</title>
<path fill="none" stroke="#548b54" stroke-width="2" d="M197.94,-18C177.78,-18 151.98,-18 131.71,-18"/>
</g>
<!-- {a, c}&#45;&gt;{a, d} -->
<g id="edge5" class="edge">
<title>{a, c}&#45;&gt;{a, d}</title>
<path fill="none" stroke="lightcoral" stroke-width="2" d="M286.59,-149.74C274.11,-171.36 252.92,-208.06 240.5,-229.58"/>
</g>
<!-- {a, c}&#45;&gt;{b, c} -->
<g id="edge6" class="edge">
<title>{a, c}&#45;&gt;{b, c}</title>
<path fill="none" stroke="blue" stroke-width="2" d="M263.97,-132.37C213.18,-132.37 115.82,-132.37 65.07,-132.37"/>
</g>
<!-- {c, d} -->
<g id="node6" class="node">
<title>{c, d}</title>
<ellipse fill="none" stroke="black" cx="98.53" cy="-246.74" rx="32.49" ry="18"/>
<text text-anchor="middle" x="98.53" y="-243.04" font-family="Times,serif" font-size="14.00">{c, d}</text>
</g>
<!-- {a, c}&#45;&gt;{c, d} -->
<g id="edge7" class="edge">
<title>{a, c}&#45;&gt;{c, d}</title>
<path fill="none" stroke="blue" stroke-width="2" d="M273.9,-145.49C235.79,-167.49 159.43,-211.58 121.29,-233.59"/>
</g>
<!-- {a, d}&#45;&gt;{b, d} -->
<g id="edge8" class="edge">
<title>{a, d}&#45;&gt;{b, d}</title>
<path fill="none" stroke="#ff7f00" stroke-width="2" d="M220.66,-229.54C196.19,-187.15 133.16,-77.99 108.57,-35.39"/>
</g>
<!-- {a, d}&#45;&gt;{c, d} -->
<g id="edge9" class="edge">
<title>{a, d}&#45;&gt;{c, d}</title>
<path fill="none" stroke="#ff7f00" stroke-width="2" d="M197.94,-246.74C177.63,-246.74 151.59,-246.74 131.25,-246.74"/>
</g>
<!-- {b, c}&#45;&gt;{b, d} -->
<g id="edge10" class="edge">
<title>{b, c}&#45;&gt;{b, d}</title>
<path fill="none" stroke="#548b54" stroke-width="2" d="M42.53,-115C54.94,-93.5 75.95,-57.1 88.4,-35.53"/>
</g>
<!-- {b, c}&#45;&gt;{c, d} -->
<g id="edge11" class="edge">
<title>{b, c}&#45;&gt;{c, d}</title>
<path fill="none" stroke="blue" stroke-width="2" d="M42.53,-149.74C55.01,-171.36 76.2,-208.06 88.62,-229.58"/>
</g>
<!-- {b, d}&#45;&gt;{c, d} -->
<g id="edge12" class="edge">
<title>{b, d}&#45;&gt;{c, d}</title>
<path fill="none" stroke="#ff7f00" stroke-width="2" d="M98.53,-36.33C98.53,-79.27 98.53,-185.93 98.53,-228.64"/>
</g>
</g>
</svg>
