<svg width="747" height="997" viewBox="0 0 747 997" fill="none" xmlns="http://www.w3.org/2000/svg">
<path d="M373.449 0.000183105C579.699 0.000183105 746.898 167.199 746.898 373.449C746.898 579.7 579.699 746.898 373.449 746.898C167.199 746.898 0 579.7 0 373.449C0 167.199 167.199 0.000183105 373.449 0.000183105Z" fill="url(#paint0_radial_872_3375)"/>
<path d="M309.429 4.19666C232.258 17.5962 167.246 50.3505 113.4 102.956C58.0645 157.05 23.8213 220.077 7.19603 298.738L1.48883 325.537L0.744417 661.02L0 996.752H6.94789C10.9181 996.752 23.5732 995.512 34.9876 994.271C132.506 982.36 215.385 923.303 260.546 833.725C271.96 810.896 280.149 784.594 285.856 751.839C290.571 724.048 290.819 714.867 290.074 569.953L289.33 417.348L295.285 402.46C303.474 382.112 326.055 359.532 346.402 351.343L361.29 345.388L500.248 345.14C576.675 345.14 643.672 344.147 648.883 343.154C673.201 338.44 699.256 318.092 709.677 295.512C712.655 289.308 716.625 277.149 718.362 268.961C721.092 255.313 720.844 251.591 716.873 236.207C704.466 190.549 660.794 127.274 616.129 90.3008C565.509 48.3654 509.677 20.3257 449.38 6.18176C417.618 -1.01427 345.658 -2.25496 309.429 4.19666Z" fill="url(#paint1_radial_872_3375)"/>
<defs>
<radialGradient id="paint0_radial_872_3375" cx="0" cy="0" r="1" gradientUnits="userSpaceOnUse" gradientTransform="translate(591.025 92.2808) scale(724.415)">
<stop stop-color="#2440E6"/>
<stop offset="1" stop-color="#5661B3"/>
</radialGradient>
<radialGradient id="paint1_radial_872_3375" cx="0" cy="0" r="1" gradientUnits="userSpaceOnUse" gradientTransform="translate(-265.84 893.837) rotate(-53.345) scale(355.721 565.335)">
<stop stop-color="#6574CD" stop-opacity="0.5"/>
<stop offset="1" stop-color="#6574CD"/>
</radialGradient>
</defs>
</svg>
